<svg xmlns="http://www.w3.org/2000/svg" viewBox="0 0 32 32" width="32" height="32">
  <rect width="32" height="32" rx="4" fill="#0D1B2A"/>
  <g transform="translate(3, 7) scale(0.325)">
    <line x1="3" y1="44" x2="77" y2="44" stroke="#C8962A" stroke-width="2" stroke-linecap="round"/>
    <rect x="17.5" y="14" width="3" height="30" fill="#C8962A"/>
    <rect x="12.5" y="11" width="13" height="3" fill="#C8962A" rx="0.5"/>
    <rect x="14" y="19" width="10" height="2" fill="#C8962A" rx="0.5"/>
    <rect x="15.5" y="29" width="7" height="2" fill="#C8962A" rx="0.5"/>
    <rect x="59.5" y="14" width="3" height="30" fill="#C8962A"/>
    <rect x="54.5" y="11" width="13" height="3" fill="#C8962A" rx="0.5"/>
    <rect x="56" y="19" width="10" height="2" fill="#C8962A" rx="0.5"/>
    <rect x="57.5" y="29" width="7" height="2" fill="#C8962A" rx="0.5"/>
    <path d="M 3,44 L 19,13 Q 40,28 61,13 L 77,44" fill="none" stroke="#C8962A" stroke-width="1.5" stroke-linecap="round" stroke-linejoin="round"/>
    <line x1="19" y1="13" x2="8" y2="44" stroke="#C8962A" stroke-width="0.8" stroke-linecap="round"/>
    <line x1="19" y1="13" x2="13" y2="44" stroke="#C8962A" stroke-width="0.8" stroke-linecap="round"/>
    <line x1="61" y1="13" x2="72" y2="44" stroke="#C8962A" stroke-width="0.8" stroke-linecap="round"/>
    <line x1="61" y1="13" x2="67" y2="44" stroke="#C8962A" stroke-width="0.8" stroke-linecap="round"/>
    <line x1="29.5" y1="18" x2="29.5" y2="44" stroke="#C8962A" stroke-width="0.8" stroke-linecap="round"/>
    <line x1="40" y1="20" x2="40" y2="44" stroke="#C8962A" stroke-width="0.8" stroke-linecap="round"/>
    <line x1="50.5" y1="18" x2="50.5" y2="44" stroke="#C8962A" stroke-width="0.8" stroke-linecap="round"/>
    <circle cx="3" cy="44" r="2.5" fill="#C8962A"/>
    <circle cx="77" cy="44" r="2.5" fill="#C8962A"/>
  </g>
</svg>
